<?xml version="1.0" encoding="UTF-8" standalone="no"?><!DOCTYPE svg PUBLIC "-//W3C//DTD SVG 1.1//EN" "http://www.w3.org/Graphics/SVG/1.1/DTD/svg11.dtd"><svg width="200%" height="200%" viewBox="0 0 945 898" version="1.1" xmlns="http://www.w3.org/2000/svg" xmlns:xlink="http://www.w3.org/1999/xlink" xml:space="preserve" xmlns:serif="http://www.serif.com/" style="fill-rule:evenodd;clip-rule:evenodd;stroke-linejoin:round;stroke-miterlimit:2;"><path d="M924.738,348.638l-246.528,-142.6l70.631,-41.003l-83.931,-145.634c-10.694,-18.562 -34.381,-24.922 -52.888,-14.169l-246.294,142.966l-0.056,-81.906l-167.641,0.134c-21.372,0.012 -38.688,17.409 -38.669,38.844l0.219,285.591l-70.684,-40.897l-83.728,145.806c-10.659,18.569 -4.306,42.291 14.203,53l246.556,142.616l-70.656,41.019l83.931,145.634c10.694,18.562 34.375,24.909 52.884,14.172l246.294,-142.969l0.059,81.884l167.641,-0.128c21.369,-0.016 38.681,-17.413 38.669,-38.853l-0.222,-285.584l70.688,40.887l83.725,-145.806c10.663,-18.566 4.306,-42.294 -14.203,-53.003m-307.894,94.287c-21.369,0.016 -38.684,17.413 -38.669,38.85l0.103,139.95l-28.834,-50.044c-10.706,-18.566 -34.391,-24.906 -52.897,-14.169l-120.672,70.047l28.806,-50.153c10.662,-18.569 4.303,-42.294 -14.206,-53.003l-120.8,-69.866l57.594,-0.041c21.369,-0.025 38.681,-17.409 38.666,-38.856l-0.103,-139.934l28.831,50.05c10.709,18.566 34.397,24.906 52.903,14.169l120.653,-70.044l-28.788,50.119c-10.663,18.575 -4.306,42.303 14.203,53l120.816,69.884l-57.606,0.041Z" style="fill:#141414;fill-rule:nonzero;"/></svg>
